<svg xmlns="http://www.w3.org/2000/svg" width="965" height="835.9230770923682" version="1.1"><rect id="backgroundrect" width="100%" height="100%" x="0" y="0" fill="none" stroke="none" class=""/>


































































<g class="currentLayer"><title>Layer 1</title><path fill="#040403" d="M16.745385055541995,13.571540222167968 C20.83538505554199,7.391540222167976 28.075385055541993,2.8615402221679744 35.68538505554199,3.7315402221679648 C42.08538505554199,4.061540222167963 47.12538505554199,8.49154022216797 51.625385055542,12.591540222167964 C118.355385055542,71.53154022216796 185.325385055542,130.21154022216797 251.985385055542,189.24154022216794 C252.32538505554197,188.77154022216797 253.01538505554197,187.82154022216798 253.365385055542,187.35154022216796 C251.165385055542,191.57154022216798 248.69538505554198,195.65154022216797 246.915385055542,200.08154022216797 C244.925385055542,196.80154022216794 241.535385055542,194.74154022216794 238.81538505554198,192.121540222168 C183.68538505554199,143.50154022216796 128.445385055542,95.01154022216798 73.38538505554199,46.31154022216796 C65.285385055542,54.80154022216797 60.345385055541996,66.64154022216798 60.75538505554199,78.45154022216798 C60.795385055542,92.94154022216796 68.49538505554199,106.50154022216796 78.815385055542,116.27154022216797 C128.03538505554198,159.67154022216798 177.305385055542,203.02154022216797 226.53538505554198,246.40154022216797 C227.50538505554198,247.191540222168 228.53538505554198,247.91154022216796 229.615385055542,248.55154022216794 C227.225385055542,260.21154022216797 225.115385055542,271.98154022216795 224.225385055542,283.871540222168 C221.855385055542,283.831540222168 219.475385055542,283.881540222168 217.115385055542,283.99154022216794 C219.25538505554198,285.91154022216796 221.455385055542,287.761540222168 223.68538505554199,289.581540222168 C222.995385055542,294.371540222168 222.985385055542,299.22154022216796 223.31538505554198,304.05154022216794 C161.635385055542,249.60154022216796 99.82538505554199,195.30154022216794 38.12538505554199,140.87154022216797 C20.325385055541993,124.29154022216798 8.215385055541994,101.60154022216796 4.825385055541993,77.48154022216798 C1.675385055541991,55.65154022216797 5.525385055541992,32.66154022216797 16.745385055541995,13.571540222167968 z" id="svg_1" class=""/><path fill="#040403" d="M873.935385055542,12.411540222167972 C878.9253850555419,8.051540222167972 885.985385055542,5.6315402221679705 892.505385055542,7.621540222167965 C899.225385055542,9.481540222167965 904.375385055542,14.981540222167965 907.125385055542,21.231540222167965 C923.975385055542,54.04154022216798 919.7953850555419,95.57154022216798 898.885385055542,125.59154022216796 C888.525385055542,141.38154022216796 872.905385055542,152.37154022216797 859.135385055542,164.92154022216798 C800.995385055542,215.58154022216797 742.955385055542,266.35154022216796 684.775385055542,316.96154022216797 C684.085385055542,310.17154022216795 687.185385055542,303.641540222168 686.025385055542,296.881540222168 C685.185385055542,291.871540222168 684.145385055542,286.86154022216795 684.275385055542,281.751540222168 C692.305385055542,280.47154022216796 700.465385055542,280.96154022216797 708.555385055542,281.131540222168 C711.525385055542,279.941540222168 713.575385055542,277.081540222168 716.085385055542,275.11154022216795 C716.695385055542,255.73154022216795 721.0453850555419,234.96154022216797 734.885385055542,220.52154022216797 C717.375385055542,235.30154022216794 700.445385055542,250.76154022216798 682.895385055542,265.48154022216795 C682.575385055542,261.17154022216795 681.415385055542,257.001540222168 680.055385055542,252.92154022216795 C678.7953850555419,249.181540222168 679.5453850555419,245.17154022216795 678.835385055542,241.34154022216796 C677.645385055542,234.91154022216796 675.155385055542,228.82154022216798 672.2953850555419,222.98154022216795 C669.135385055542,214.441540222168 665.735385055542,205.96154022216797 661.145385055542,198.08154022216797 C732.075385055542,136.19154022216796 803.015385055542,74.32154022216798 873.935385055542,12.411540222167972 z" id="svg_2" class=""/><path fill="#ffffff" d="M32.675385055541994,14.721540222167974 C38.035385055541994,13.731540222167965 41.50538505554199,18.691540222167973 45.26538505554199,21.541540222167967 C39.565385055541995,28.231540222167965 30.075385055541993,29.171540222167962 21.91538505554199,27.721540222167974 C24.15538505554199,22.621540222167965 26.455385055541996,15.911540222167972 32.675385055541994,14.721540222167974 z" id="svg_3" class=""/><path fill="#ffffff" d="M852.575385055542,45.54154022216797 C859.325385055542,40.011540222167966 865.5453850555419,33.81154022216796 872.485385055542,28.541540222167967 C879.605385055542,36.951540222167964 891.715385055542,38.44154022216797 901.935385055542,36.111540222167974 C901.905385055542,36.451540222167964 901.865385055542,37.13154022216797 901.845385055542,37.471540222167974 C889.945385055542,44.55154022216797 878.865385055542,54.361540222167974 873.585385055542,67.45154022216798 C869.4253850555419,77.55154022216797 870.375385055542,89.22154022216796 875.0453850555419,98.97154022216796 C878.485385055542,106.43154022216797 883.475385055542,113.07154022216798 889.095385055542,119.02154022216797 C889.895385055542,120.95154022216798 887.435385055542,122.26154022216798 886.665385055542,123.79154022216798 C870.075385055542,124.79154022216798 853.145385055542,126.77154022216797 837.755385055542,133.43154022216797 C834.775385055542,134.78154022216796 831.7953850555419,136.17154022216798 829.215385055542,138.20154022216798 C838.405385055542,129.43154022216797 849.305385055542,122.16154022216796 856.2953850555419,111.32154022216798 C864.635385055542,98.98154022216798 868.445385055542,83.17154022216798 864.495385055542,68.59154022216796 C862.495385055542,60.02154022216797 857.635385055542,52.57154022216798 852.575385055542,45.54154022216797 z" id="svg_4" class=""/><path fill="#ffffff" d="M35.68538505554199,38.42154022216796 C42.55538505554199,37.42154022216796 48.77538505554199,33.731540222167965 53.52538505554199,28.761540222167966 C57.175385055541994,32.121540222167965 60.815385055541995,35.52154022216797 64.71538505554199,38.591540222167964 C60.22538505554199,45.481540222167965 55.015385055542,52.18154022216797 52.765385055542,60.27154022216797 C51.88538505554199,60.08154022216797 51.35538505554199,59.53154022216796 51.155385055542,58.631540222167956 C47.75538505554199,50.69154022216796 41.41538505554199,44.63154022216797 35.68538505554199,38.42154022216796 z" id="svg_5" class=""/><path fill="#ffffff" d="M17.52538505554199,39.641540222167976 C20.34538505554199,40.361540222167974 22.435385055541992,42.57154022216797 24.795385055541992,44.16154022216797 C34.65538505554199,51.881540222167956 43.79538505554199,62.371540222167965 44.86538505554199,75.39154022216798 C45.79538505554199,89.30154022216797 37.52538505554199,101.71154022216797 28.455385055541996,111.48154022216798 C15.255385055541993,90.34154022216796 11.415385055541993,63.76154022216798 17.52538505554199,39.641540222167976 z" id="svg_6" class=""/><path fill="#ffffff" d="M60.75538505554199,78.45154022216798 C60.345385055541996,66.64154022216798 65.285385055542,54.80154022216797 73.38538505554199,46.31154022216796 C128.445385055542,95.01154022216798 183.68538505554199,143.50154022216796 238.81538505554198,192.121540222168 C241.535385055542,194.74154022216794 244.925385055542,196.80154022216794 246.915385055542,200.08154022216797 C239.00538505554198,215.34154022216796 233.335385055542,231.79154022216795 229.615385055542,248.55154022216794 C228.53538505554198,247.91154022216796 227.50538505554198,247.191540222168 226.53538505554198,246.40154022216797 C177.305385055542,203.02154022216797 128.03538505554198,159.67154022216798 78.815385055542,116.27154022216797 C68.49538505554199,106.50154022216796 60.795385055542,92.94154022216796 60.75538505554199,78.45154022216798 z" id="svg_7" class=""/><path fill="#006600" d="M390.725385055542,78.88154022216796 C437.64538505554196,65.38154022216796 488.855385055542,67.27154022216797 534.605385055542,84.37154022216797 C589.165385055542,104.45154022216798 635.245385055542,146.06154022216796 661.145385055542,198.08154022216797 C665.735385055542,205.96154022216797 669.135385055542,214.441540222168 672.2953850555419,222.98154022216795 C675.155385055542,228.82154022216798 677.645385055542,234.91154022216796 678.835385055542,241.34154022216796 C679.5453850555419,245.17154022216795 678.7953850555419,249.181540222168 680.055385055542,252.92154022216795 C681.415385055542,257.001540222168 682.575385055542,261.17154022216795 682.895385055542,265.48154022216795 C682.825385055542,270.951540222168 684.215385055542,276.29154022216795 684.275385055542,281.751540222168 C684.145385055542,286.86154022216795 685.185385055542,291.871540222168 686.025385055542,296.881540222168 C687.185385055542,303.641540222168 684.085385055542,310.17154022216795 684.775385055542,316.96154022216797 C684.085385055542,325.831540222168 683.095385055542,334.691540222168 681.365385055542,343.42154022216795 C676.115385055542,343.891540222168 670.865385055542,343.34154022216796 665.615385055542,343.261540222168 C638.605385055542,343.27154022216797 611.585385055542,343.27154022216797 584.575385055542,343.261540222168 C580.595385055542,343.16154022216796 576.615385055542,343.22154022216796 572.665385055542,343.681540222168 L572.4253850555419,343.691540222168 C528.505385055542,342.96154022216797 484.575385055542,343.40154022216797 440.64538505554196,343.23154022216795 C438.295385055542,343.22154022216796 435.965385055542,343.47154022216796 433.635385055542,343.66154022216796 L433.275385055542,343.67154022216795 C382.135385055542,343.59154022216796 330.985385055542,343.571540222168 279.845385055542,343.681540222168 L279.565385055542,343.67154022216795 C269.605385055542,342.80154022216794 259.575385055542,343.48154022216795 249.58538505554202,343.27154022216797 C242.475385055542,343.011540222168 235.365385055542,343.78154022216796 228.25538505554198,343.571540222168 C225.825385055542,338.441540222168 225.895385055542,332.691540222168 224.895385055542,327.21154022216797 C223.895385055542,319.54154022216795 223.465385055542,311.78154022216796 223.31538505554198,304.05154022216794 C222.985385055542,299.22154022216796 222.995385055542,294.371540222168 223.68538505554199,289.581540222168 C223.885385055542,287.67154022216795 224.03538505554198,285.77154022216797 224.225385055542,283.871540222168 C225.115385055542,271.98154022216795 227.225385055542,260.21154022216797 229.615385055542,248.55154022216794 C233.335385055542,231.79154022216795 239.00538505554198,215.34154022216796 246.915385055542,200.08154022216797 C248.69538505554198,195.65154022216797 251.165385055542,191.57154022216798 253.365385055542,187.35154022216796 C282.595385055542,135.08154022216797 333.115385055542,95.23154022216798 390.725385055542,78.88154022216796 z" id="svg_8" class=""/><path fill="#ffffff" d="M50.74538505554199,98.55154022216797 C51.30538505554199,97.48154022216798 51.60538505554199,96.14154022216798 52.72538505554199,95.50154022216796 C55.50538505554199,104.24154022216797 60.315385055541995,112.30154022216797 66.455385055542,119.10154022216796 C57.61538505554199,117.48154022216798 48.74538505554199,115.78154022216796 39.745385055541995,115.52154022216797 C43.715385055541994,110.07154022216798 48.01538505554199,104.77154022216797 50.74538505554199,98.55154022216797 z" id="svg_9" class=""/><path fill="#ffffff" d="M39.30538505554199,126.17154022216798 C52.265385055542,127.32154022216798 65.345385055542,129.15154022216797 77.57538505554199,133.80154022216797 C84.02538505554199,136.26154022216798 90.30538505554199,139.82154022216798 94.52538505554199,145.42154022216798 C99.845385055542,152.47154022216796 102.875385055542,160.94154022216796 105.315385055542,169.35154022216796 C107.065385055542,175.871540222168 108.72538505554199,182.46154022216797 109.395385055542,189.191540222168 C95.095385055542,176.28154022216796 80.485385055542,163.69154022216796 66.065385055542,150.90154022216797 C57.11538505554199,142.69154022216796 47.355385055541994,135.31154022216796 39.30538505554199,126.17154022216798 z" id="svg_10" class=""/><path fill="#ffffff" d="M740.705385055542,215.51154022216798 C768.285385055542,190.86154022216795 796.455385055542,166.87154022216797 824.185385055542,142.39154022216798 C811.535385055542,157.87154022216797 807.695385055542,178.34154022216796 804.985385055542,197.621540222168 C802.395385055542,199.66154022216796 800.105385055542,202.05154022216794 797.555385055542,204.121540222168 C788.505385055542,203.96154022216797 779.365385055542,203.14154022216798 770.345385055542,204.501540222168 C759.855385055542,205.931540222168 749.265385055542,209.061540222168 740.705385055542,215.51154022216798 z" id="svg_11" class=""/><path fill="#ffffff" d="M114.84538505554198,162.48154022216798 C127.725385055542,173.94154022216796 140.665385055542,185.33154022216797 153.635385055542,196.691540222168 C142.93538505554199,194.91154022216796 132.085385055542,195.11154022216795 121.33538505554199,196.20154022216798 C120.325385055542,184.77154022216797 117.765385055542,173.55154022216797 114.84538505554198,162.48154022216798 z" id="svg_12" class=""/><path fill="#ffffff" d="M129.545385055542,206.371540222168 C147.295385055542,205.46154022216797 167.015385055542,207.88154022216798 180.585385055542,220.47154022216796 C192.93538505554199,232.67154022216795 197.695385055542,250.64154022216798 198.395385055542,267.52154022216797 C182.205385055542,253.09154022216796 165.84538505554198,238.84154022216796 149.605385055542,224.46154022216797 C142.985385055542,218.36154022216795 135.775385055542,212.86154022216795 129.545385055542,206.371540222168 z" id="svg_13" class=""/><path fill="#ffffff" d="M682.895385055542,265.48154022216795 C700.445385055542,250.76154022216798 717.375385055542,235.30154022216794 734.885385055542,220.52154022216797 C721.0453850555419,234.96154022216797 716.695385055542,255.73154022216795 716.085385055542,275.11154022216795 C713.575385055542,277.081540222168 711.525385055542,279.941540222168 708.555385055542,281.131540222168 C700.465385055542,280.96154022216797 692.305385055542,280.47154022216796 684.275385055542,281.751540222168 C684.215385055542,276.29154022216795 682.825385055542,270.951540222168 682.895385055542,265.48154022216795 z" id="svg_14" class=""/><path fill="#ffffff" d="M205.265385055542,242.47154022216796 C212.725385055542,248.47154022216796 219.75538505554198,255.01154022216798 226.925385055542,261.36154022216795 C226.115385055542,265.191540222168 225.775385055542,269.10154022216796 225.12538505554198,272.96154022216797 C220.03538505554198,272.96154022216797 214.955385055542,272.99154022216794 209.885385055542,273.34154022216796 C209.225385055542,262.951540222168 208.495385055542,252.441540222168 205.265385055542,242.47154022216796 z" id="svg_15" class=""/><path fill="#ffffff" d="M217.115385055542,283.99154022216794 C219.475385055542,283.881540222168 221.855385055542,283.831540222168 224.225385055542,283.871540222168 C224.03538505554198,285.77154022216797 223.885385055542,287.67154022216795 223.68538505554199,289.581540222168 C221.455385055542,287.761540222168 219.25538505554198,285.91154022216796 217.115385055542,283.99154022216794 z" id="svg_16" class=""/><path fill="#040403" d="M224.895385055542,327.21154022216797 C225.895385055542,332.691540222168 225.825385055542,338.441540222168 228.25538505554198,343.571540222168 C235.365385055542,343.78154022216796 242.475385055542,343.011540222168 249.58538505554202,343.27154022216797 C259.575385055542,343.48154022216795 269.605385055542,342.80154022216794 279.565385055542,343.67154022216795 C265.925385055542,343.751540222168 252.27538505554202,343.67154022216795 238.635385055542,343.72154022216796 C246.14538505554196,383.40154022216797 265.525385055542,420.621540222168 292.905385055542,450.23154022216795 C317.655385055542,477.00154022216793 349.095385055542,497.571540222168 383.635385055542,509.281540222168 C425.535385055542,523.6315402221679 471.795385055542,524.791540222168 514.365385055542,512.611540222168 C552.955385055542,501.691540222168 588.2953850555419,479.84154022216796 615.5453850555419,450.46154022216797 C623.495385055542,441.6315402221679 631.285385055542,432.47154022216796 637.465385055542,422.311540222168 C635.165385055542,414.84154022216796 634.765385055542,406.331540222168 638.575385055542,399.27154022216797 C642.255385055542,391.751540222168 649.665385055542,386.61154022216795 657.725385055542,384.79154022216795 C663.155385055542,371.54154022216795 667.285385055542,357.77154022216797 670.1753850555419,343.751540222168 C637.6753850555419,343.631540222168 605.1753850555419,343.761540222168 572.665385055542,343.681540222168 C576.615385055542,343.22154022216796 580.595385055542,343.16154022216796 584.575385055542,343.261540222168 C611.585385055542,343.27154022216797 638.605385055542,343.27154022216797 665.615385055542,343.261540222168 C670.865385055542,343.34154022216796 676.115385055542,343.891540222168 681.365385055542,343.42154022216795 C678.815385055542,356.181540222168 675.535385055542,368.831540222168 670.895385055542,381.001540222168 C670.305385055542,382.41154022216796 669.895385055542,383.881540222168 669.705385055542,385.41154022216796 C683.125385055542,388.431540222168 692.325385055542,403.081540222168 689.5453850555419,416.501540222168 C689.115385055542,420.071540222168 687.195385055542,423.131540222168 685.9253850555419,426.42154022216795 C694.445385055542,442.5215402221679 703.345385055542,458.431540222168 711.465385055542,474.74154022216794 C789.515385055542,474.7615402221679 867.565385055542,474.74154022216794 945.615385055542,474.75154022216793 C950.155385055542,474.651540222168 954.775385055542,475.931540222168 958.435385055542,478.671540222168 C964.485385055542,483.1415402221679 966.945385055542,491.331540222168 965.7953850555419,498.581540222168 C961.0453850555419,522.911540222168 946.275385055542,544.7615402221679 926.305385055542,559.2515402221679 C906.615385055542,573.711540222168 881.9253850555419,580.7715402221679 857.585385055542,579.8715402221679 C803.665385055542,579.911540222168 749.735385055542,579.781540222168 695.805385055542,579.941540222168 C709.065385055542,591.811540222168 722.555385055542,603.421540222168 735.815385055542,615.301540222168 C736.525385055542,616.1215402221679 738.005385055542,616.841540222168 738.725385055542,615.571540222168 C744.385385055542,609.211540222168 749.905385055542,602.731540222168 755.615385055542,596.421540222168 C757.585385055542,594.0215402221679 761.665385055542,594.151540222168 763.695385055542,596.431540222168 C769.865385055542,601.851540222168 776.085385055542,607.221540222168 782.1753850555419,612.7415402221679 C784.625385055542,614.551540222168 784.905385055542,618.4915402221679 782.725385055542,620.611540222168 C776.855385055542,627.3815402221679 770.955385055542,634.1315402221679 764.915385055542,640.7515402221679 C807.1753850555419,678.321540222168 849.735385055542,715.571540222168 892.145385055542,752.981540222168 C894.865385055542,754.861540222168 895.135385055542,759.221540222168 892.695385055542,761.441540222168 C873.515385055542,783.301540222168 854.265385055542,805.091540222168 835.075385055542,826.941540222168 C832.505385055542,829.551540222168 830.525385055542,833.211540222168 826.605385055542,833.861540222168 C823.355385055542,833.041540222168 821.085385055542,830.4915402221679 818.655385055542,828.3815402221679 C777.645385055542,792.101540222168 736.405385055542,756.101540222168 695.465385055542,719.7415402221679 C689.405385055542,726.571540222168 683.415385055542,733.461540222168 677.335385055542,740.2715402221679 C675.395385055542,742.451540222168 671.625385055542,742.601540222168 669.605385055542,740.471540222168 C663.395385055542,735.041540222168 657.1753850555419,729.6315402221679 651.0453850555419,724.1315402221679 C648.485385055542,722.311540222168 648.105385055542,718.2615402221679 650.305385055542,716.0215402221679 C656.255385055542,709.231540222168 662.255385055542,702.4915402221679 668.165385055542,695.671540222168 C646.645385055542,676.941540222168 625.315385055542,657.9915402221679 603.885385055542,639.151540222168 C598.135385055542,634.3715402221679 592.855385055542,628.961540222168 586.855385055542,624.5215402221679 C581.365385055542,643.7615402221679 571.615385055542,662.071540222168 557.195385055542,676.091540222168 C544.865385055542,688.481540222168 529.195385055542,697.211540222168 512.645385055542,702.591540222168 C491.735385055542,709.3815402221679 469.555385055542,711.3715402221679 447.665385055542,711.051540222168 C415.865385055542,710.3715402221679 383.305385055542,701.091540222168 358.64538505554196,680.3815402221679 C343.185385055542,667.481540222168 331.335385055542,650.541540222168 323.755385055542,631.931540222168 C299.415385055542,653.201540222168 275.165385055542,674.581540222168 250.64538505554196,695.6215402221679 C253.595385055542,701.201540222168 258.855385055542,705.331540222168 262.675385055542,710.3915402221679 C265.385385055542,714.0215402221679 271.095385055542,717.421540222168 268.855385055542,722.701540222168 C263.685385055542,728.191540222168 257.485385055542,732.691540222168 251.96538505554201,737.841540222168 C249.675385055542,739.5115402221679 247.75538505554198,742.461540222168 244.58538505554202,742.191540222168 C241.595385055542,742.3715402221679 239.93538505554199,739.531540222168 238.195385055542,737.6215402221679 C233.09538505554198,731.691540222168 227.93538505554199,725.821540222168 222.765385055542,719.951540222168 C180.40538505554198,757.201540222168 137.705385055542,794.071540222168 95.295385055542,831.2715402221679 C93.13538505554199,833.581540222168 89.05538505554199,833.8715402221679 86.93538505554199,831.341540222168 C66.33538505554199,807.811540222168 45.83538505554199,784.191540222168 25.23538505554199,760.651540222168 C23.55538505554199,758.951540222168 23.40538505554199,756.2615402221679 24.23538505554199,754.1415402221679 C25.465385055541994,752.351540222168 27.245385055541995,751.061540222168 28.855385055541994,749.661540222168 C58.77538505554199,723.531540222168 88.72538505554199,697.451540222168 118.665385055542,671.351540222168 C130.265385055542,661.0215402221679 142.265385055542,651.1315402221679 153.635385055542,640.561540222168 C147.705385055542,634.0215402221679 142.045385055542,627.2515402221679 136.165385055542,620.671540222168 C135.085385055542,619.531540222168 134.805385055542,617.931540222168 134.28538505554198,616.5215402221679 C134.87538505554198,615.061540222168 135.295385055542,613.451540222168 136.59538505554198,612.451540222168 C142.805385055542,606.941540222168 149.115385055542,601.541540222168 155.325385055542,596.031540222168 C157.50538505554198,593.951540222168 161.605385055542,594.081540222168 163.425385055542,596.591540222168 C169.145385055542,603.281540222168 175.115385055542,609.7715402221679 180.715385055542,616.581540222168 C181.835385055542,616.101540222168 182.835385055542,615.441540222168 183.715385055542,614.611540222168 C196.955385055542,603.031540222168 210.235385055542,591.5015402221679 223.465385055542,579.911540222168 C169.735385055542,579.811540222168 116.00538505554198,579.911540222168 62.265385055542,579.861540222168 C62.235385055542,544.861540222168 62.345385055541996,509.85154022216796 62.21538505554199,474.85154022216796 C120.77538505554199,474.60154022216796 179.335385055542,474.831540222168 237.895385055542,474.74154022216794 C237.945385055542,467.00154022216793 237.855385055542,459.2615402221679 237.925385055542,451.5215402221679 C237.715385055542,446.401540222168 242.52538505554202,441.801540222168 247.615385055542,442.11154022216795 C253.27538505554202,442.12154022216794 258.945385055542,442.11154022216795 264.615385055542,442.12154022216794 C269.70538505554197,441.821540222168 274.385385055542,446.46154022216797 274.245385055542,451.541540222168 C274.315385055542,459.2715402221679 274.225385055542,467.00154022216793 274.285385055542,474.74154022216794 C283.665385055542,474.74154022216794 293.055385055542,474.7715402221679 302.445385055542,474.73154022216795 C264.175385055542,441.431540222168 237.245385055542,395.181540222168 227.735385055542,345.311540222168 C227.425385055542,343.29154022216795 226.06538505554198,341.581540222168 226.115385055542,339.501540222168 C226.205385055542,335.36154022216795 225.09538505554198,331.331540222168 224.895385055542,327.21154022216797 z" id="svg_17" class=""/><path fill="#040403" d="M433.635385055542,343.66154022216796 C435.965385055542,343.47154022216796 438.295385055542,343.22154022216796 440.64538505554196,343.23154022216795 C484.575385055542,343.40154022216797 528.505385055542,342.96154022216797 572.4253850555419,343.691540222168 C572.245385055542,353.21154022216797 571.155385055542,362.681540222168 570.775385055542,372.201540222168 C593.605385055542,370.931540222168 616.005385055542,365.73154022216795 637.995385055542,359.71154022216797 C620.775385055542,379.441540222168 595.005385055542,390.46154022216797 569.105385055542,391.97154022216796 C567.5453850555419,406.71154022216797 566.205385055542,421.54154022216795 562.875385055542,436.0215402221679 C561.735385055542,440.311540222168 560.785385055542,445.10154022216796 557.125385055542,448.031540222168 C554.835385055542,429.371540222168 553.685385055542,410.581540222168 552.115385055542,391.84154022216796 C526.825385055542,389.66154022216796 501.81538505554204,378.811540222168 484.795385055542,359.65154022216797 C506.29538505554194,365.631540222168 528.235385055542,370.441540222168 550.525385055542,372.10154022216796 C550.355385055542,362.621540222168 549.495385055542,353.17154022216795 549.185385055542,343.701540222168 C510.66538505554195,343.681540222168 472.14538505554196,343.761540222168 433.635385055542,343.66154022216796 z" id="svg_18" class=""/><path fill="#ffffff" d="M238.635385055542,343.72154022216796 C252.27538505554202,343.67154022216795 265.925385055542,343.751540222168 279.565385055542,343.67154022216795 L279.845385055542,343.681540222168 C280.055385055542,359.53154022216796 285.605385055542,375.23154022216795 295.14538505554196,387.871540222168 C306.305385055542,402.90154022216797 323.255385055542,413.48154022216795 341.625385055542,417.061540222168 C358.835385055542,420.48154022216795 377.225385055542,417.821540222168 392.70538505554197,409.501540222168 C416.745385055542,396.97154022216796 433.025385055542,370.831540222168 433.275385055542,343.67154022216795 L433.635385055542,343.66154022216796 C472.14538505554196,343.761540222168 510.66538505554195,343.681540222168 549.185385055542,343.701540222168 C549.495385055542,353.17154022216795 550.355385055542,362.621540222168 550.525385055542,372.10154022216796 C528.235385055542,370.441540222168 506.29538505554194,365.631540222168 484.795385055542,359.65154022216797 C501.81538505554204,378.811540222168 526.825385055542,389.66154022216796 552.115385055542,391.84154022216796 C553.685385055542,410.581540222168 554.835385055542,429.371540222168 557.125385055542,448.031540222168 C560.785385055542,445.10154022216796 561.735385055542,440.311540222168 562.875385055542,436.0215402221679 C566.205385055542,421.54154022216795 567.5453850555419,406.71154022216797 569.105385055542,391.97154022216796 C595.005385055542,390.46154022216797 620.775385055542,379.441540222168 637.995385055542,359.71154022216797 C616.005385055542,365.73154022216795 593.605385055542,370.931540222168 570.775385055542,372.201540222168 C571.155385055542,362.681540222168 572.245385055542,353.21154022216797 572.4253850555419,343.691540222168 L572.665385055542,343.681540222168 C605.1753850555419,343.761540222168 637.6753850555419,343.631540222168 670.1753850555419,343.751540222168 C667.285385055542,357.77154022216797 663.155385055542,371.54154022216795 657.725385055542,384.79154022216795 C649.665385055542,386.61154022216795 642.255385055542,391.751540222168 638.575385055542,399.27154022216797 C634.765385055542,406.331540222168 635.165385055542,414.84154022216796 637.465385055542,422.311540222168 C631.285385055542,432.47154022216796 623.495385055542,441.6315402221679 615.5453850555419,450.46154022216797 C588.2953850555419,479.84154022216796 552.955385055542,501.691540222168 514.365385055542,512.611540222168 C471.795385055542,524.791540222168 425.535385055542,523.6315402221679 383.635385055542,509.281540222168 C349.095385055542,497.571540222168 317.655385055542,477.00154022216793 292.905385055542,450.23154022216795 C265.525385055542,420.621540222168 246.14538505554196,383.40154022216797 238.635385055542,343.72154022216796 z" id="svg_19" class=""/><path fill="#040403" d="M279.845385055542,343.681540222168 C330.985385055542,343.571540222168 382.135385055542,343.59154022216796 433.275385055542,343.67154022216795 C433.025385055542,370.831540222168 416.745385055542,396.97154022216796 392.70538505554197,409.501540222168 C377.225385055542,417.821540222168 358.835385055542,420.48154022216795 341.625385055542,417.061540222168 C323.255385055542,413.48154022216795 306.305385055542,402.90154022216797 295.14538505554196,387.871540222168 C285.605385055542,375.23154022216795 280.055385055542,359.53154022216796 279.845385055542,343.681540222168 z" id="svg_20" class=""/><path fill="#ebc900" d="M660.245385055542,395.451540222168 C669.655385055542,393.691540222168 679.325385055542,401.92154022216795 679.105385055542,411.501540222168 C679.375385055542,420.311540222168 671.415385055542,428.191540222168 662.635385055542,428.02154022216797 C655.265385055542,428.011540222168 648.385385055542,422.49154022216794 646.815385055542,415.28154022216796 C644.4253850555419,406.431540222168 651.235385055542,396.67154022216795 660.245385055542,395.451540222168 z" id="svg_21" class=""/><path fill="#040403" d="M445.01538505554197,435.11154022216795 C457.485385055542,431.691540222168 471.625385055542,438.7615402221679 476.39538505554196,450.7615402221679 C479.745385055542,458.84154022216796 479.005385055542,468.6415402221679 474.095385055542,475.931540222168 C469.315385055542,483.47154022216796 460.445385055542,488.21154022216797 451.535385055542,488.051540222168 C442.415385055542,488.191540222168 433.485385055542,483.1315402221679 428.745385055542,475.36154022216795 C422.585385055542,465.6315402221679 423.64538505554196,451.86154022216795 431.495385055542,443.35154022216796 C435.035385055542,439.331540222168 439.815385055542,436.401540222168 445.01538505554197,435.11154022216795 z" id="svg_22" class=""/><path fill="#ebc900" d="M666.385385055542,438.431540222168 C670.095385055542,438.09154022216796 673.535385055542,436.6315402221679 676.805385055542,434.911540222168 C678.145385055542,433.831540222168 678.5453850555419,436.1415402221679 679.1753850555419,436.8815402221679 C686.975385055542,451.791540222168 695.415385055542,466.3915402221679 702.585385055542,481.62154022216794 C704.355385055542,484.7615402221679 701.145385055542,487.2715402221679 698.765385055542,488.74154022216794 C692.245385055542,492.6315402221679 685.5453850555419,496.5215402221679 678.145385055542,498.46154022216797 C674.305385055542,478.441540222168 669.945385055542,458.49154022216794 666.385385055542,438.431540222168 z" id="svg_23" class=""/><path fill="#ebc900" d="M649.935385055542,435.651540222168 C651.605385055542,436.331540222168 653.305385055542,437.0215402221679 655.005385055542,437.681540222168 C659.245385055542,459.1415402221679 663.935385055542,480.531540222168 667.625385055542,502.09154022216796 C663.575385055542,502.86154022216795 659.455385055542,503.161540222168 655.335385055542,503.24154022216794 C654.185385055542,480.661540222168 651.695385055542,458.181540222168 649.935385055542,435.651540222168 z" id="svg_24" class=""/><path fill="#ebc900" d="M638.745385055542,439.49154022216794 C639.435385055542,439.97154022216796 639.755385055542,440.6415402221679 639.725385055542,441.50154022216793 C641.155385055542,462.48154022216795 643.775385055542,483.3815402221679 644.555385055542,504.401540222168 C639.035385055542,503.96154022216797 633.505385055542,503.86154022216795 627.985385055542,503.60154022216796 C628.965385055542,486.25154022216793 630.705385055542,468.931540222168 631.495385055542,451.551540222168 C631.465385055542,446.46154022216797 636.505385055542,443.6315402221679 638.745385055542,439.49154022216794 z" id="svg_25" class=""/><path fill="#ebc900" d="M248.88538505554197,549.4915402221679 C248.925385055542,517.341540222168 248.81538505554198,485.191540222168 248.94538505554198,453.041540222168 C253.735385055542,453.061540222168 258.525385055542,453.031540222168 263.315385055542,453.071540222168 C263.275385055542,502.61154022216795 263.465385055542,552.161540222168 263.225385055542,601.701540222168 C258.505385055542,601.681540222168 253.795385055542,601.6315402221679 249.07538505554197,601.7415402221679 C248.63538505554197,584.331540222168 249.01538505554197,566.911540222168 248.88538505554197,549.4915402221679 z" id="svg_26" class=""/><path fill="#ffffff" d="M606.325385055542,474.73154022216795 C610.895385055542,470.37154022216794 615.765385055542,466.321540222168 619.985385055542,461.61154022216795 C619.885385055542,466.00154022216793 619.245385055542,470.36154022216795 619.115385055542,474.75154022216793 C614.845385055542,474.74154022216794 610.585385055542,474.7615402221679 606.325385055542,474.73154022216795 z" id="svg_27" class=""/><path fill="#ebc900" d="M73.16538505554199,485.6315402221679 C81.565385055542,485.71154022216797 89.985385055542,485.421540222168 98.38538505554199,485.7615402221679 C99.155385055542,490.00154022216793 98.815385055542,494.781540222168 98.44538505554199,499.191540222168 C90.455385055542,500.661540222168 83.175385055542,506.0115402221679 80.045385055542,513.601540222168 C76.82538505554199,521.4915402221679 76.765385055542,530.551540222168 79.295385055542,538.6415402221679 C82.045385055542,547.311540222168 89.645385055542,554.0215402221679 98.44538505554199,556.091540222168 C99.08538505554199,560.331540222168 98.63538505554199,564.6315402221679 98.765385055542,568.901540222168 C90.22538505554199,569.071540222168 81.68538505554199,568.951540222168 73.155385055542,568.961540222168 C73.125385055542,541.181540222168 73.11538505554199,513.411540222168 73.16538505554199,485.6315402221679 z" id="svg_28" class=""/><path fill="#ffffff" d="M109.375385055542,485.75154022216793 C152.25538505554198,485.581540222168 195.135385055542,485.681540222168 238.015385055542,485.701540222168 C237.965385055542,493.421540222168 238.055385055542,501.1415402221679 237.965385055542,508.87154022216794 C230.62538505554198,502.031540222168 223.745385055542,494.72154022216796 216.585385055542,487.71154022216797 C205.555385055542,498.801540222168 194.275385055542,509.671540222168 183.495385055542,521.0015402221679 C172.445385055542,509.951540222168 161.225385055542,499.051540222168 150.415385055542,487.7715402221679 C137.165385055542,500.801540222168 124.03538505554198,513.961540222168 110.985385055542,527.191540222168 C124.34538505554198,540.0215402221679 137.105385055542,553.471540222168 150.455385055542,566.321540222168 C161.205385055542,555.3915402221679 172.15538505554198,544.651540222168 182.915385055542,533.7515402221679 C183.225385055542,533.781540222168 183.84538505554198,533.841540222168 184.15538505554198,533.8815402221679 C194.975385055542,544.681540222168 205.75538505554198,555.541540222168 216.615385055542,566.311540222168 C223.775385055542,559.2515402221679 230.825385055542,552.081540222168 237.975385055542,545.0215402221679 C238.045385055542,552.341540222168 237.965385055542,559.661540222168 238.025385055542,566.981540222168 C237.65538505554198,567.451540222168 236.925385055542,568.3915402221679 236.555385055542,568.861540222168 C194.165385055542,569.031540222168 151.775385055542,568.941540222168 109.395385055542,568.911540222168 C109.32538505554199,562.851540222168 109.535385055542,556.781540222168 109.295385055542,550.731540222168 C109.21538505554199,547.8715402221679 106.43538505554199,546.0215402221679 103.77538505554199,546.0015402221679 C97.595385055542,545.561540222168 91.765385055542,541.421540222168 89.72538505554199,535.5015402221679 C87.57538505554199,529.421540222168 87.71538505554199,522.331540222168 90.68538505554199,516.551540222168 C93.375385055542,511.551540222168 99.235385055542,509.541540222168 104.60538505554199,509.22154022216796 C107.18538505554199,509.291540222168 109.425385055542,506.931540222168 109.32538505554199,504.37154022216794 C109.49538505554199,498.161540222168 109.35538505554199,491.951540222168 109.375385055542,485.75154022216793 z" id="svg_29" class=""/><path fill="#ffffff" d="M274.225385055542,485.681540222168 C287.715385055542,485.661540222168 301.215385055542,485.651540222168 314.70538505554197,485.681540222168 C316.085385055542,485.5115402221679 317.135385055542,486.5215402221679 318.20538505554197,487.21154022216797 C317.185385055542,491.24154022216794 317.125385055542,495.59154022216796 315.675385055542,499.451540222168 C301.995385055542,511.6415402221679 288.045385055542,523.571540222168 274.275385055542,535.681540222168 C274.155385055542,519.0115402221679 274.255385055542,502.35154022216796 274.225385055542,485.681540222168 z" id="svg_30" class=""/><path fill="#ffffff" d="M590.605385055542,487.441540222168 C591.315385055542,486.49154022216794 592.315385055542,485.581540222168 593.605385055542,485.691540222168 C601.825385055542,485.581540222168 610.0453850555419,485.7715402221679 618.265385055542,485.60154022216796 C618.345385055542,492.2615402221679 617.075385055542,498.84154022216796 616.775385055542,505.48154022216795 C616.355385055542,509.281540222168 619.645385055542,512.2415402221679 623.015385055542,513.2615402221679 C629.965385055542,515.341540222168 637.345385055542,514.171540222168 644.4253850555419,515.5215402221679 C646.875385055542,515.8715402221679 649.345385055542,515.281540222168 651.755385055542,514.831540222168 C655.825385055542,513.661540222168 660.125385055542,514.301540222168 664.255385055542,513.401540222168 C668.995385055542,512.431540222168 674.015385055542,513.571540222168 678.635385055542,511.86154022216795 C682.905385055542,510.71154022216797 686.595385055542,508.24154022216794 690.185385055542,505.75154022216793 C697.285385055542,501.86154022216795 705.305385055542,498.8915402221679 710.705385055542,492.571540222168 C712.435385055542,490.71154022216797 713.275385055542,488.2615402221679 713.575385055542,485.7715402221679 C777.695385055542,485.551540222168 841.825385055542,485.681540222168 905.945385055542,485.71154022216797 C904.725385055542,497.1315402221679 900.745385055542,508.441540222168 893.255385055542,517.281540222168 C883.465385055542,529.181540222168 868.145385055542,536.731540222168 852.645385055542,536.231540222168 C803.955385055542,536.211540222168 755.275385055542,536.221540222168 706.595385055542,536.221540222168 C686.335385055542,536.071540222168 666.025385055542,536.5015402221679 645.785385055542,536.0115402221679 C627.365385055542,519.861540222168 609.015385055542,503.61154022216795 590.605385055542,487.441540222168 z" id="svg_31" class=""/><path fill="#ffffff" d="M916.465385055542,485.96154022216797 C924.7953850555419,485.281540222168 933.205385055542,485.86154022216795 941.565385055542,485.661540222168 C945.345385055542,485.75154022216793 949.985385055542,485.051540222168 952.745385055542,488.301540222168 C956.1753850555419,491.8815402221679 955.225385055542,497.291540222168 953.885385055542,501.581540222168 C947.595385055542,525.331540222168 930.685385055542,545.661540222168 909.115385055542,557.181540222168 C894.325385055542,565.211540222168 877.415385055542,569.311540222168 860.595385055542,568.951540222168 C801.4253850555419,568.931540222168 742.255385055542,568.981540222168 683.095385055542,568.931540222168 C674.9253850555419,561.651540222168 666.695385055542,554.451540222168 658.485385055542,547.231540222168 C724.195385055542,547.0215402221679 789.915385055542,547.231540222168 855.635385055542,547.1215402221679 C868.055385055542,546.711540222168 880.275385055542,542.341540222168 890.265385055542,534.9915402221679 C905.825385055542,523.7515402221679 915.785385055542,505.1315402221679 916.465385055542,485.96154022216797 z" id="svg_32" class=""/><path fill="#ffffff" d="M327.605385055542,494.551540222168 C329.865385055542,494.84154022216796 331.525385055542,496.441540222168 333.405385055542,497.561540222168 C347.745385055542,506.401540222168 363.065385055542,513.6315402221679 378.95538505554197,519.211540222168 C378.965385055542,532.971540222168 378.975385055542,546.731540222168 378.945385055542,560.5015402221679 C359.225385055542,555.7615402221679 340.065385055542,548.3715402221679 322.245385055542,538.681540222168 C323.255385055542,523.8815402221679 325.45538505554197,509.21154022216797 327.605385055542,494.551540222168 z" id="svg_33" class=""/><path fill="#ffffff" d="M529.995385055542,519.101540222168 C546.085385055542,513.421540222168 561.605385055542,506.09154022216796 576.065385055542,497.031540222168 C578.5453850555419,509.72154022216796 580.765385055542,522.551540222168 581.485385055542,535.481540222168 C566.375385055542,547.211540222168 548.215385055542,554.681540222168 530.025385055542,560.321540222168 C529.985385055542,546.581540222168 530.035385055542,532.841540222168 529.995385055542,519.101540222168 z" id="svg_34" class=""/><path fill="#ffffff" d="M587.855385055542,499.441540222168 C635.215385055542,541.541540222168 683.085385055542,583.091540222168 730.395385055542,625.2515402221679 C719.645385055542,637.2515402221679 708.965385055542,649.321540222168 698.465385055542,661.541540222168 C697.395385055542,661.0115402221679 696.415385055542,660.331540222168 695.575385055542,659.5215402221679 C661.775385055542,629.671540222168 627.845385055542,599.981540222168 594.125385055542,570.071540222168 C594.665385055542,546.361540222168 591.405385055542,522.811540222168 587.855385055542,499.441540222168 z" id="svg_35" class=""/><path fill="#c1c1bb" d="M128.175385055542,525.041540222168 C135.59538505554198,517.7615402221679 142.795385055542,510.2715402221679 150.295385055542,503.081540222168 C158.235385055542,511.10154022216796 166.335385055542,518.971540222168 174.18538505554199,527.081540222168 C166.15538505554198,535.0115402221679 158.28538505554198,543.091540222168 150.205385055542,550.961540222168 C142.575385055542,543.231540222168 134.835385055542,535.6215402221679 127.205385055542,527.8915402221679 C125.86538505554199,526.931540222168 127.53538505554198,525.7715402221679 128.175385055542,525.041540222168 z" id="svg_36" class=""/><path fill="#c1c1bb" d="M214.385385055542,505.25154022216793 C215.18538505554199,504.581540222168 215.955385055542,503.10154022216796 217.195385055542,503.811540222168 C224.145385055542,510.701540222168 231.055385055542,517.6315402221679 238.025385055542,524.5115402221679 C238.03538505554198,526.211540222168 238.055385055542,527.911540222168 238.06538505554198,529.6315402221679 C230.945385055542,536.801540222168 223.81538505554198,543.971540222168 216.605385055542,551.061540222168 C208.665385055542,543.0115402221679 200.365385055542,535.2715402221679 192.745385055542,526.921540222168 C199.985385055542,519.721540222168 207.225385055542,512.5215402221679 214.385385055542,505.25154022216793 z" id="svg_37" class=""/><path fill="#ffffff" d="M459.915385055542,531.7415402221679 C479.935385055542,531.2715402221679 499.855385055542,528.091540222168 519.125385055542,522.611540222168 C519.075385055542,536.2515402221679 519.225385055542,549.8915402221679 519.0453850555419,563.531540222168 C499.66538505554195,567.9915402221679 479.855385055542,570.471540222168 459.965385055542,570.701540222168 C459.855385055542,557.711540222168 459.95538505554197,544.731540222168 459.915385055542,531.7415402221679 z" id="svg_38" class=""/><path fill="#ffffff" d="M390.025385055542,563.551540222168 C389.725385055542,549.931540222168 389.945385055542,536.301540222168 389.915385055542,522.671540222168 C409.135385055542,528.301540222168 429.095385055542,531.161540222168 449.095385055542,531.801540222168 C449.025385055542,544.6415402221679 449.085385055542,557.481540222168 449.065385055542,570.321540222168 C429.195385055542,570.401540222168 409.475385055542,567.3715402221679 390.025385055542,563.551540222168 z" id="svg_39" class=""/><path fill="#ffffff" d="M529.965385055542,571.941540222168 C548.5453850555419,566.531540222168 566.505385055542,558.861540222168 582.835385055542,548.431540222168 C583.525385055542,559.811540222168 583.525385055542,571.231540222168 582.985385055542,582.6215402221679 C567.305385055542,594.661540222168 548.855385055542,602.701540222168 530.025385055542,608.361540222168 C529.965385055542,596.221540222168 530.075385055542,584.081540222168 529.965385055542,571.941540222168 z" id="svg_40" class=""/><path fill="#ffffff" d="M321.915385055542,550.9915402221679 C340.005385055542,560.2715402221679 359.275385055542,567.091540222168 378.965385055542,572.101540222168 C378.95538505554197,583.7415402221679 378.975385055542,595.3815402221679 378.95538505554197,607.0215402221679 C359.305385055542,600.931540222168 340.295385055542,592.541540222168 323.035385055542,581.321540222168 C321.545385055542,571.301540222168 321.795385055542,561.091540222168 321.915385055542,550.9915402221679 z" id="svg_41" class=""/><path fill="#ffffff" d="M460.005385055542,581.2415402221679 C479.885385055542,581.5115402221679 499.725385055542,579.0015402221679 519.115385055542,574.701540222168 C519.105385055542,586.9915402221679 519.185385055542,599.281540222168 519.075385055542,611.571540222168 C499.705385055542,616.1315402221679 479.855385055542,618.5215402221679 459.975385055542,618.7615402221679 C459.905385055542,606.2515402221679 459.845385055542,593.7415402221679 460.005385055542,581.2415402221679 z" id="svg_42" class=""/><path fill="#ffffff" d="M389.875385055542,610.211540222168 C389.915385055542,598.351540222168 389.865385055542,586.4915402221679 389.905385055542,574.6315402221679 C409.365385055542,578.561540222168 429.155385055542,581.061540222168 449.025385055542,581.281540222168 C449.105385055542,593.7515402221679 449.085385055542,606.231540222168 449.035385055542,618.711540222168 C429.085385055542,617.911540222168 409.20538505554197,615.231540222168 389.875385055542,610.211540222168 z" id="svg_43" class=""/><path fill="#ffffff" d="M593.515385055542,584.451540222168 C598.705385055542,588.2515402221679 603.165385055542,592.941540222168 608.165385055542,596.981540222168 C602.865385055542,596.821540222168 597.565385055542,596.901540222168 592.275385055542,597.161540222168 C593.1753850555419,592.981540222168 593.195385055542,588.691540222168 593.515385055542,584.451540222168 z" id="svg_44" class=""/><path fill="#ffffff" d="M286.545385055542,611.7615402221679 C294.985385055542,603.691540222168 304.135385055542,596.3915402221679 312.775385055542,588.531540222168 C313.425385055542,593.351540222168 314.175385055542,598.181540222168 315.185385055542,602.951540222168 C305.135385055542,603.2715402221679 294.70538505554197,605.6315402221679 286.545385055542,611.7615402221679 z" id="svg_45" class=""/><path fill="#ffffff" d="M324.885385055542,595.431540222168 C362.605385055542,617.331540222168 406.26538505554197,628.611540222168 449.785385055542,629.2415402221679 L450.485385055542,629.661540222168 C495.76538505554197,630.151540222168 542.565385055542,621.8815402221679 581.345385055542,597.3815402221679 C579.4253850555419,614.171540222168 574.575385055542,630.7615402221679 566.525385055542,645.661540222168 C558.275385055542,660.911540222168 545.845385055542,673.901540222168 530.805385055542,682.571540222168 C512.615385055542,693.201540222168 491.565385055542,697.801540222168 470.755385055542,699.481540222168 C451.26538505554197,700.971540222168 431.405385055542,700.351540222168 412.415385055542,695.341540222168 C393.035385055542,690.351540222168 374.545385055542,680.971540222168 360.125385055542,666.961540222168 C340.45538505554197,648.171540222168 329.075385055542,622.0115402221679 324.885385055542,595.431540222168 z" id="svg_46" class=""/><path fill="#ffffff" d="M591.435385055542,608.311540222168 C603.435385055542,606.8815402221679 616.345385055542,607.671540222168 626.865385055542,614.201540222168 C634.965385055542,619.061540222168 640.695385055542,627.311540222168 643.195385055542,636.361540222168 C645.535385055542,644.171540222168 645.565385055542,652.451540222168 644.835385055542,660.5115402221679 C626.435385055542,644.611540222168 608.365385055542,628.321540222168 589.985385055542,612.411540222168 C590.325385055542,610.9915402221679 589.7953850555419,609.0215402221679 591.435385055542,608.311540222168 z" id="svg_47" class=""/><path fill="#ebc900" d="M147.715385055542,617.331540222168 C151.205385055542,613.931540222168 155.055385055542,610.961540222168 158.635385055542,607.671540222168 C191.135385055542,645.0115402221679 223.695385055542,682.301540222168 256.275385055542,719.581540222168 C252.63538505554197,722.7515402221679 248.96538505554201,725.8915402221679 245.415385055542,729.161540222168 C212.745385055542,691.971540222168 180.365385055542,654.531540222168 147.715385055542,617.331540222168 z" id="svg_48" class=""/><path fill="#ebc900" d="M759.845385055542,608.201540222168 C763.915385055542,610.311540222168 767.235385055542,614.351540222168 770.845385055542,617.401540222168 C738.635385055542,654.661540222168 705.615385055542,691.2515402221679 673.385385055542,728.4915402221679 C668.945385055542,726.451540222168 665.985385055542,722.171540222168 662.005385055542,719.3915402221679 C694.505385055542,682.231540222168 727.145385055542,645.171540222168 759.845385055542,608.201540222168 z" id="svg_49" class=""/><path fill="#ffffff" d="M232.925385055542,658.0215402221679 C248.915385055542,644.7615402221679 264.105385055542,630.561540222168 280.135385055542,617.341540222168 C268.345385055542,629.921540222168 266.275385055542,648.541540222168 268.805385055542,664.921540222168 C268.315385055542,666.321540222168 266.695385055542,667.0115402221679 265.735385055542,668.091540222168 C256.465385055542,660.981540222168 244.68538505554199,656.7415402221679 232.925385055542,658.0215402221679 z" id="svg_50" class=""/><path fill="#ffffff" d="M655.0453850555419,638.231540222168 C661.475385055542,644.161540222168 668.155385055542,649.811540222168 674.685385055542,655.6415402221679 C668.205385055542,655.6415402221679 661.755385055542,657.081540222168 655.905385055542,659.861540222168 C656.405385055542,652.6315402221679 656.185385055542,645.3815402221679 655.0453850555419,638.231540222168 z" id="svg_51" class=""/><path fill="#e5e0c6" d="M761.265385055542,652.351540222168 C772.345385055542,661.661540222168 783.005385055542,671.471540222168 793.955385055542,680.941540222168 C789.305385055542,682.7515402221679 784.355385055542,683.581540222168 779.565385055542,684.921540222168 C771.905385055542,686.7715402221679 764.335385055542,689.031540222168 756.595385055542,690.551540222168 C757.835385055542,677.791540222168 759.485385055542,665.051540222168 761.265385055542,652.351540222168 z" id="svg_52" class="" fill-opacity="1"/><path fill="#e5e0c6" d="M710.785385055542,702.361540222168 C723.475385055542,687.531540222168 736.435385055542,672.911540222168 749.485385055542,658.3915402221679 C748.315385055542,670.181540222168 746.775385055542,681.941540222168 745.205385055542,693.681540222168 C733.735385055542,696.571540222168 722.2953850555419,699.6215402221679 710.785385055542,702.361540222168 z" id="svg_53" class="" fill-opacity="1"/><path fill="#ffffff" d="M657.585385055542,671.1315402221679 C667.275385055542,665.531540222168 679.815385055542,664.801540222168 689.475385055542,670.861540222168 C685.665385055542,676.931540222168 680.005385055542,681.781540222168 675.575385055542,687.461540222168 C671.005385055542,684.0215402221679 666.995385055542,679.911540222168 662.595385055542,676.281540222168 C660.935385055542,674.561540222168 658.595385055542,673.3715402221679 657.585385055542,671.1315402221679 z" id="svg_54" class=""/><path fill="#661238" d="M144.81538505554198,670.541540222168 C148.395385055542,670.7615402221679 151.805385055542,671.8815402221679 155.225385055542,672.8815402221679 C165.735385055542,675.671540222168 176.215385055542,678.6315402221679 186.735385055542,681.401540222168 C188.175385055542,682.191540222168 187.855385055542,683.9915402221679 188.03538505554198,685.3715402221679 C189.145385055542,698.711540222168 191.615385055542,711.941540222168 192.365385055542,725.311540222168 C178.415385055542,721.181540222168 164.265385055542,717.7715402221679 150.28538505554198,713.7515402221679 C148.925385055542,699.301540222168 146.09538505554198,684.9915402221679 144.81538505554198,670.541540222168 z" id="svg_55" class="" fill-opacity="1"/><path fill="#ebc900" d="M750.845385055542,754.051540222168 C768.985385055542,733.111540222168 787.525385055542,712.5115402221679 805.705385055542,691.601540222168 C807.115385055542,692.7615402221679 808.765385055542,693.7615402221679 809.665385055542,695.441540222168 C791.435385055542,715.951540222168 773.485385055542,736.731540222168 755.1753850555419,757.171540222168 C753.385385055542,757.071540222168 752.265385055542,755.0015402221679 750.845385055542,754.051540222168 z" id="svg_56" class=""/><path fill="#e5e0c6" d="M755.005385055542,702.2515402221679 C766.505385055542,699.291540222168 777.985385055542,696.201540222168 789.565385055542,693.551540222168 C776.735385055542,708.311540222168 763.855385055542,723.051540222168 750.715385055542,737.541540222168 C751.935385055542,725.7515402221679 753.515385055542,714.0015402221679 755.005385055542,702.2515402221679 z" id="svg_57" class="" fill-opacity="1"/><path fill="#e5e0c6" d="M819.615385055542,703.791540222168 C830.385385055542,712.861540222168 840.775385055542,722.3815402221679 851.4253850555419,731.611540222168 C839.095385055542,735.341540222168 826.765385055542,739.181540222168 814.265385055542,742.291540222168 C816.075385055542,729.461540222168 817.935385055542,716.6315402221679 819.615385055542,703.791540222168 z" id="svg_58" class="" fill-opacity="1"/><path fill="#e5e0c6" d="M706.515385055542,714.5215402221679 C718.995385055542,711.451540222168 731.415385055542,708.161540222168 743.895385055542,705.071540222168 C742.1753850555419,717.921540222168 740.855385055542,730.821540222168 738.995385055542,743.651540222168 C730.135385055542,735.961540222168 721.375385055542,728.171540222168 712.575385055542,720.411540222168 C710.585385055542,718.411540222168 707.985385055542,716.981540222168 706.515385055542,714.5215402221679 z" id="svg_59" class="" fill-opacity="1"/><path fill="#661238" d="M96.845385055542,711.6215402221679 C111.10538505554199,715.7615402221679 125.46538505554199,719.571540222168 139.825385055542,723.361540222168 C140.78538505554198,737.7615402221679 143.65538505554198,751.981540222168 144.395385055542,766.3815402221679 C141.34538505554198,766.171540222168 138.395385055542,765.3915402221679 135.495385055542,764.4915402221679 C124.455385055542,761.561540222168 113.46538505554199,758.481540222168 102.405385055542,755.6215402221679 C101.035385055542,740.901540222168 98.19538505554199,726.331540222168 96.845385055542,711.6215402221679 z" id="svg_60" class="" fill-opacity="1"/><path fill="#e5e0c6" d="M772.075385055542,754.401540222168 C783.875385055542,741.191540222168 795.355385055542,727.681540222168 807.305385055542,714.611540222168 C806.015385055542,725.031540222168 804.495385055542,735.421540222168 803.005385055542,745.811540222168 C792.685385055542,748.611540222168 782.565385055542,752.331540222168 772.075385055542,754.401540222168 z" id="svg_61" class="" fill-opacity="1"/><path fill="#661238" d="M59.72538505554199,737.481540222168 C60.99538505554199,736.5015402221679 62.27538505554199,735.5215402221679 63.545385055542,734.551540222168 C81.425385055542,755.331540222168 99.46538505554199,775.981540222168 117.61538505554199,796.531540222168 C116.43538505554199,797.721540222168 115.235385055542,798.8915402221679 114.015385055542,800.051540222168 C96.175385055542,778.981540222168 77.71538505554199,758.431540222168 59.72538505554199,737.481540222168 z" id="svg_62" class="" fill-opacity="1"/><path fill="#ebc900" d="M862.765385055542,741.7615402221679 C868.965385055542,747.1415402221679 875.235385055542,752.441540222168 881.195385055542,758.071540222168 C862.885385055542,778.781540222168 844.555385055542,799.4915402221679 826.4253850555419,820.361540222168 C819.975385055542,815.361540222168 814.155385055542,809.581540222168 807.885385055542,804.351540222168 C826.005385055542,783.341540222168 844.615385055542,762.7415402221679 862.765385055542,741.7615402221679 z" id="svg_63" class=""/><path fill="#e5e0c6" d="M812.555385055542,754.2715402221679 C823.665385055542,751.0015402221679 834.715385055542,747.461540222168 845.965385055542,744.721540222168 C833.315385055542,758.951540222168 820.775385055542,773.281540222168 808.185385055542,787.571540222168 C809.185385055542,776.421540222168 811.2953850555419,765.3915402221679 812.555385055542,754.2715402221679 z" id="svg_64" class="" fill-opacity="1"/><path fill="#ebc900" d="M36.79538505554199,757.321540222168 C41.455385055541996,753.061540222168 46.26538505554199,748.981540222168 50.99538505554199,744.811540222168 C68.895385055542,764.711540222168 86.16538505554199,785.181540222168 103.93538505554199,805.191540222168 C104.425385055542,805.981540222168 106.065385055542,806.9915402221679 105.145385055542,808.031540222168 C100.765385055542,812.201540222168 96.00538505554199,815.951540222168 91.565385055542,820.061540222168 C73.295385055542,799.161540222168 55.095385055541996,778.191540222168 36.79538505554199,757.321540222168 z" id="svg_65" class=""/><path fill="#e5e0c6" d="M766.575385055542,767.551540222168 C778.165385055542,764.281540222168 789.685385055542,760.7415402221679 801.2953850555419,757.541540222168 C799.875385055542,769.561540222168 797.975385055542,781.5215402221679 796.4253850555419,793.531540222168 C793.505385055542,792.401540222168 791.5453850555419,789.781540222168 789.155385055542,787.8815402221679 C781.705385055542,781.031540222168 773.645385055542,774.781540222168 766.575385055542,767.551540222168 z" id="svg_66" class="" fill-opacity="1"/></g></svg>